<svg width="1200" height="220" viewBox="0 0 1200 220" fill="none" xmlns="http://www.w3.org/2000/svg">
  <defs>
    <linearGradient id="purple" x1="0" y1="0" x2="1200" y2="220" gradientUnits="userSpaceOnUse">
      <stop stop-color="#160D24"/>
      <stop offset="0.24" stop-color="#4C1D95"/>
      <stop offset="0.58" stop-color="#7C3AED"/>
      <stop offset="0.82" stop-color="#A855F7"/>
      <stop offset="1" stop-color="#241035"/>
    </linearGradient>
    <radialGradient id="glow" cx="0" cy="0" r="1" gradientTransform="translate(600 185) rotate(-90) scale(155 520)" gradientUnits="userSpaceOnUse">
      <stop stop-color="#D8B4FE" stop-opacity="0.5"/>
      <stop offset="1" stop-color="#D8B4FE" stop-opacity="0"/>
    </radialGradient>
    <filter id="soft" x="-20%" y="-20%" width="140%" height="140%">
      <feGaussianBlur stdDeviation="18"/>
    </filter>
  </defs>

  <path d="M0 57C176 8 308 101 487 66C685 27 791 4 968 39C1061 58 1137 66 1200 49V220H0V57Z" fill="url(#purple)"/>
  <ellipse cx="600" cy="184" rx="430" ry="110" fill="url(#glow)" filter="url(#soft)"/>

  <g fill="#F5F3FF" opacity="0.78">
    <circle cx="92" cy="116" r="2"/>
    <circle cx="174" cy="80" r="1.5"/>
    <circle cx="1035" cy="107" r="2"/>
    <circle cx="1114" cy="86" r="1.5"/>
    <path d="M244 127H256M250 121V133" stroke="#F5F3FF" stroke-width="1.5"/>
    <path d="M944 121H956M950 115V127" stroke="#F5F3FF" stroke-width="1.5"/>
  </g>

  <text x="600" y="135" fill="white" text-anchor="middle" font-family="Georgia, serif" font-size="26" font-style="italic" letter-spacing="1">
    Designing with intention · building with care
  </text>
  <text x="600" y="168" fill="#EDE9FE" text-anchor="middle" font-family="Arial, sans-serif" font-size="12" font-weight="700" letter-spacing="4">
    LANA HUERTAS · MANILA
  </text>
</svg>
